<?xml version="1.0" encoding="utf-8"?>
<!-- Generator: Adobe Illustrator 27.0.1, SVG Export Plug-In . SVG Version: 6.00 Build 0)  -->
<svg version="1.1" id="Layer_1" xmlns="http://www.w3.org/2000/svg" xmlns:xlink="http://www.w3.org/1999/xlink" x="0px" y="0px"
	 viewBox="0 0 1024 1024" enable-background="new 0 0 1024 1024" xml:space="preserve">
<path fill="#84D1AE" d="M848.3,1017.8H175.7c-93.6,0-169.5-75.9-169.5-169.5V175.7C6.2,82.1,82.1,6.2,175.7,6.2h672.6
	c93.6,0,169.5,75.9,169.5,169.5v672.6C1017.8,941.9,941.9,1017.8,848.3,1017.8z"/>
<path fill="#FFFFFF" d="M512,84.6C276.3,84.6,84.6,276.3,84.6,512S276.3,939.4,512,939.4c235.7,0,427.4-191.7,427.4-427.4
	S747.7,84.6,512,84.6z M297.3,821.6h429.3c-60.9,43-134.9,68.2-214.7,68.2C432.2,889.8,358.2,864.6,297.3,821.6z M412.8,670.5
	c32.7,10.1,58.6,35.9,68.6,68.6C448.8,729.1,422.9,703.3,412.8,670.5z M530.3,348.1c23.2-23.2,59.7-25.4,85.4-6.5v65.1
	c0,57.2-46.5,103.7-103.7,103.7c-57.2,0-103.7-46.5-103.7-103.7l0,0v-30.7C450,390.5,497.9,380.5,530.3,348.1z M408.3,318
	c23.6-17.3,56.2-19.3,79.3-1.3C463.9,335.2,431.4,334.6,408.3,318z M542.5,739.2c10.1-32.7,35.9-58.6,68.6-68.6
	C601.1,703.3,575.2,729.1,542.5,739.2z M785.9,769.7H597.7c42-27.9,69.9-75.6,69.9-129.7v-25.9h-25.9c-39.8,0-76.2,15.1-103.7,39.8
	V560c73.5-12.4,129.7-76.4,129.7-153.4V319c-30.5-35-80.8-55-136.5-32.8c-44.3-49.6-125.8-46.3-174.7,6.9l0,0v113.6
	c0,77,56.2,141,129.7,153.4v93.8c-27.6-24.7-63.9-39.8-103.7-39.8h-25.9V640c0,54.1,27.8,101.8,69.9,129.7l-188.2,0
	c-62.6-67.6-101-158.2-101-257.7c0-208.3,168.2-377.8,374.9-377.8c206.7,0,374.9,169.5,374.9,377.8
	C886.9,611.5,848.5,702.2,785.9,769.7z"/>
</svg>
